<?xml version="1.0" encoding="utf-8"?>
<!-- Generator: Adobe Illustrator 16.0.0, SVG Export Plug-In . SVG Version: 6.00 Build 0)  -->
<!DOCTYPE svg PUBLIC "-//W3C//DTD SVG 1.1//EN" "http://www.w3.org/Graphics/SVG/1.1/DTD/svg11.dtd">
<svg version="1.1" id="Layer_1" xmlns="http://www.w3.org/2000/svg" xmlns:xlink="http://www.w3.org/1999/xlink" x="0px" y="0px"
	 width="500px" height="500px" viewBox="0 0 500 500" enable-background="new 0 0 500 500" xml:space="preserve">
<path fill="#FFFFFF" d="M140.975,31.949c-20.079,0-36.342,16.264-36.342,36.34v90.945c0,12.724,5.271,24.267,13.717,32.525
	l39.524,39.52c-27.075,24.903-44.154,60.698-44.154,100.493c0,75.229,61.056,136.278,136.282,136.278
	c75.222,0,136.284-61.05,136.284-136.278c0-39.795-17.08-75.59-44.15-100.493l39.516-39.52c8.447-8.258,13.718-19.801,13.718-32.525
	V68.29c0-20.077-16.263-36.34-36.341-36.34L140.975,31.949L140.975,31.949z M250.001,259.086c3.181,0,5.815,2.007,6.726,4.818
	l16.541,40.607h42.428c3.812,0,6.99,4.094,6.99,7.818c0,2.27-1.093,4.268-2.823,5.447l-35.702,24.255
	c0,0,11.447,43.157,11.818,44.427c0.267,0.639,0.354,1.368,0.354,2.093c0,3.818-3.088,6.813-6.992,6.813
	c-1.72,0-3.362-0.627-4.544-1.633l-34.796-27.166l-34.799,27.166c-1.179,1.006-2.816,1.633-4.541,1.633
	c-3.905,0-6.996-2.995-6.996-6.813c0-0.725,0.087-1.454,0.363-2.093c0.363-1.27,11.992-44.238,11.992-44.238l-35.886-24.441
	c-1.725-1.182-2.816-3.18-2.816-5.448c0-3.726,3.182-7.817,6.995-7.817h42.429l16.535-40.609
	C244.185,261.093,246.82,259.086,250.001,259.086z M186.402,95.548v63.596c0,9.992-8.174,18.172-18.17,18.172
	s-18.17-8.181-18.17-18.172V95.548c0-9.992,8.174-18.173,18.17-18.173S186.402,85.557,186.402,95.548z M268.173,95.548v81.769
	c0,9.99-8.181,18.17-18.172,18.17c-9.996,0-18.17-8.18-18.17-18.17V95.548c0-9.992,8.175-18.173,18.17-18.173
	C259.992,77.375,268.173,85.557,268.173,95.548z M349.939,95.548v63.596c0,9.992-8.182,18.172-18.167,18.172
	c-9.992,0-18.174-8.181-18.174-18.172V95.548c0-9.992,8.182-18.173,18.174-18.173C341.759,77.375,349.939,85.557,349.939,95.548z"/>
</svg>
